<svg xmlns="http://www.w3.org/2000/svg" xmlns:xlink="http://www.w3.org/1999/xlink" width="364" height="320" viewBox="0 0 364 320"><svg width="12" height="20" viewBox="0 0 12 20" id="arrow_left" y="0"><title>arrow_left</title><defs><path d="M17.002 2.985a1.25 1.25 0 0 0-1.77 0l-8.31 8.31a.996.996 0 0 0 0 1.41l8.31 8.31c.49.49 1.28.49 1.77 0s.49-1.28 0-1.77l-7.24-7.25 7.25-7.25c.48-.48.48-1.28-.01-1.76z" id="a"></path></defs><g transform="translate(-6 -2)" fill="none" fill-rule="evenodd"><mask id="b" fill="#fff"><use xlink:href="#a"></use></mask><path d="M0 0h24v24H0z" mask="url(#b)" fill="#000" fill-opacity=".87"></path></g></svg><svg width="12" height="20" viewBox="0 0 12 20" id="arrow_right" y="20"><title>arrow_right</title><defs><path d="M6.998 21.015c.49.49 1.28.49 1.77 0l8.31-8.31a.996.996 0 0 0 0-1.41l-8.31-8.31a1.25 1.25 0 0 0-1.77 0 1.25 1.25 0 0 0 0 1.77l7.24 7.25-7.25 7.25c-.48.48-.48 1.28.01 1.76z" id="a"></path></defs><g transform="translate(-6 -2)" fill="none" fill-rule="evenodd"><mask id="b" fill="#fff"><use xlink:href="#a"></use></mask><path d="M0 0h24v24H0z" mask="url(#b)" fill="#000" fill-opacity=".87"></path></g></svg><svg width="24" height="24" viewBox="0 0 24 24" id="facebook" y="40"><title>facebook-with-circle</title><path d="M12 .48C5.638.48.48 5.638.48 12c0 6.362 5.158 11.52 11.52 11.52 6.362 0 11.52-5.158 11.52-11.52C23.52 5.638 18.362.48 12 .48zm2.729 7.96h-1.732c-.205 0-.433.27-.433.63v1.25h2.166l-.328 1.783h-1.838v5.353H10.52v-5.353H8.666V10.32h1.854V9.271c0-1.505 1.044-2.727 2.477-2.727h1.732V8.44z" fill="#000" fill-rule="nonzero"></path></svg><svg width="28" height="28" viewBox="0 0 28 28" id="language-selection" y="64"><title>circle</title><circle cx="13" cy="13" r="13" transform="translate(1 1)" stroke="#000" stroke-width="2" fill="none" fill-rule="evenodd"></circle></svg><svg width="32" height="32" viewBox="0 0 32 32" id="list" y="92"><title>list</title><g transform="translate(1 1)" fill="none" fill-rule="evenodd"><circle stroke="#000" stroke-width="2" fill="#000" cx="15" cy="15" r="15"></circle><text font-family="GraphikLCG-Bold, Graphik LCG" font-size="24" font-weight="bold" letter-spacing=".233" fill="#FFF"><tspan x="8.199" y="23">=</tspan></text></g></svg><svg width="32" height="32" viewBox="0 0 32 32" id="list_idle" y="124"><title>list_idle</title><g transform="translate(1 1)" fill="none" fill-rule="evenodd"><circle stroke="#000" stroke-width="2" cx="15" cy="15" r="15"></circle><text font-family="GraphikLCG-Bold, Graphik LCG" font-size="24" font-weight="bold" letter-spacing=".233" fill="#000"><tspan x="8.199" y="23">=</tspan></text></g></svg><svg width="364" height="20" viewBox="0 0 364 20" id="logo" y="156"><title>THE SOTIRIS FELIOS COLLECTION</title><text transform="translate(-536 -61)" fill="#000" fill-rule="evenodd" font-family="FuturaPTCond-Bold, Futura PT Cond" font-size="28" font-style="condensed" font-weight="bold" letter-spacing="2.333"><tspan x="536" y="80">THE SOTIRIS FELIOS COLLECTION</tspan></text></svg><svg width="234" height="14" viewBox="0 0 234 14" id="logo-footer" y="176"><title>THE SOTIRIS FELIOS C</title><text transform="translate(0 -5)" fill="#000" fill-rule="evenodd" font-family="FuturaPTCond-Bold, Futura PT Cond" font-size="18" font-style="condensed" font-weight="bold" letter-spacing="1.5"><tspan x="0" y="18">THE SOTIRIS FELIOS COLLECTION</tspan></text></svg><svg width="20" height="16" viewBox="0 0 20 16" id="newsletter" y="190"><title>newsletter</title><defs><path d="M20 4H4c-1.1 0-2 .9-2 2v12c0 1.1.9 2 2 2h16c1.1 0 2-.9 2-2V6c0-1.1-.9-2-2-2zm-.4 4.25l-6.54 4.09c-.65.41-1.47.41-2.12 0L4.4 8.25a.85.85 0 1 1 .9-1.44L12 11l6.7-4.19a.85.85 0 1 1 .9 1.44z" id="a"></path></defs><g transform="translate(-2 -4)" fill="none" fill-rule="evenodd"><mask id="b" fill="#fff"><use xlink:href="#a"></use></mask><path d="M0 0h24v24H0z" mask="url(#b)" fill="#000" fill-opacity=".87"></path></g></svg><svg width="18" height="18" viewBox="0 0 18 18" id="search" y="206"><title>search</title><defs><path d="M15.977 14.472h-.79l-.28-.27a6.5 6.5 0 0 0 1.48-5.34c-.47-2.78-2.79-5-5.59-5.34a6.505 6.505 0 0 0-7.27 7.27c.34 2.8 2.56 5.12 5.34 5.59a6.5 6.5 0 0 0 5.34-1.48l.27.28v.79l4.25 4.25c.41.41 1.08.41 1.49 0 .41-.41.41-1.08 0-1.49l-4.24-4.26zm-6 0c-2.49 0-4.5-2.01-4.5-4.5s2.01-4.5 4.5-4.5 4.5 2.01 4.5 4.5-2.01 4.5-4.5 4.5z" id="a"></path></defs><g transform="translate(-3 -3)" fill="none" fill-rule="evenodd"><mask id="b" fill="#fff"><use xlink:href="#a"></use></mask><path d="M0 0h24v24H0z" mask="url(#b)" fill="#000" fill-opacity=".87"></path></g></svg><svg width="32" height="32" viewBox="0 0 32 32" id="share" y="224"><title>share</title><g transform="translate(1 1)" stroke="#000" fill="none" fill-rule="evenodd"><g transform="translate(9 10)" stroke-width="3"><path d="M10.5 1.5L.987 11.013"></path><path d="M10.454 1H3.383M11 8.517V1" stroke-linecap="square"></path></g><circle stroke-width="2" cx="15" cy="15" r="15"></circle></g></svg><svg width="32" height="32" viewBox="0 0 32 32" id="thumbnails" y="256"><title>thumbnails</title><g transform="translate(1 1)" fill="none" fill-rule="evenodd"><circle stroke="#000" stroke-width="2" fill="#000" cx="15" cy="15" r="15"></circle><text font-family="GraphikLCG-Bold, Graphik LCG" font-size="17" font-weight="bold" letter-spacing=".23" fill="#FFF"><tspan x="7.815" y="20">[</tspan><tspan x="14.998" y="20" letter-spacing=".233">]</tspan></text></g></svg><svg width="32" height="32" viewBox="0 0 32 32" id="thumbnails_idle" y="288"><title>thumbnails_idle</title><g transform="translate(1 1)" fill="none" fill-rule="evenodd"><circle stroke="#000" stroke-width="2" cx="15" cy="15" r="15"></circle><text font-family="GraphikLCG-Bold, Graphik LCG" font-size="17" font-weight="bold" letter-spacing=".23" fill="#000"><tspan x="7.815" y="20">[</tspan><tspan x="14.998" y="20" letter-spacing=".233">]</tspan></text></g></svg></svg>