<svg xmlns="http://www.w3.org/2000/svg" xmlns:xlink="http://www.w3.org/1999/xlink" width="364" height="340" viewBox="0 0 364 340"><svg width="12" height="20" viewBox="0 0 12 20" id="arrow_left" y="0"><title>arrow_left</title><defs><path d="M17.002 2.985a1.25 1.25 0 0 0-1.77 0l-8.31 8.31a.996.996 0 0 0 0 1.41l8.31 8.31c.49.49 1.28.49 1.77 0s.49-1.28 0-1.77l-7.24-7.25 7.25-7.25c.48-.48.48-1.28-.01-1.76z" id="a"></path></defs><g transform="translate(-6 -2)" fill="none" fill-rule="evenodd"><mask id="b" fill="#fff"><use xlink:href="#a"></use></mask><path d="M0 0h24v24H0z" mask="url(#b)" fill="#000" fill-opacity=".87"></path></g></svg><svg width="12" height="20" viewBox="0 0 12 20" id="arrow_right" y="20"><title>arrow_right</title><defs><path d="M6.998 21.015c.49.49 1.28.49 1.77 0l8.31-8.31a.996.996 0 0 0 0-1.41l-8.31-8.31a1.25 1.25 0 0 0-1.77 0 1.25 1.25 0 0 0 0 1.77l7.24 7.25-7.25 7.25c-.48.48-.48 1.28.01 1.76z" id="a1"></path></defs><g transform="translate(-6 -2)" fill="none" fill-rule="evenodd"><mask id="b1" fill="#fff"><use xlink:href="#a1"></use></mask><path d="M0 0h24v24H0z" mask="url(#b1)" fill="#000" fill-opacity=".87"></path></g></svg><svg width="24" height="24" viewBox="0 0 24 24" id="facebook" y="40"><title>facebook-with-circle</title><path d="M12 .48C5.638.48.48 5.638.48 12c0 6.362 5.158 11.52 11.52 11.52 6.362 0 11.52-5.158 11.52-11.52C23.52 5.638 18.362.48 12 .48zm2.729 7.96h-1.732c-.205 0-.433.27-.433.63v1.25h2.166l-.328 1.783h-1.838v5.353H10.52v-5.353H8.666V10.32h1.854V9.271c0-1.505 1.044-2.727 2.477-2.727h1.732V8.44z" fill="#000" fill-rule="nonzero"></path></svg><svg width="28" height="28" viewBox="0 0 28 28" id="language-selection" y="64"><title>circle</title><circle cx="13" cy="13" r="13" transform="translate(1 1)" stroke="#000" stroke-width="2" fill="none" fill-rule="evenodd"></circle></svg><svg width="32" height="32" viewBox="0 0 32 32" id="list" y="92"><title>list</title><g transform="translate(1 1)" fill="none" fill-rule="evenodd"><circle stroke="#000" stroke-width="2" fill="#000" cx="15" cy="15" r="15"></circle><text font-family="GraphikLCG-Bold, Graphik LCG" font-size="24" font-weight="bold" letter-spacing=".233" fill="#FFF"><tspan x="8.199" y="23">=</tspan></text></g></svg><svg width="32" height="32" viewBox="0 0 32 32" id="list_idle" y="124"><title>list_idle</title><g transform="translate(1 1)" fill="none" fill-rule="evenodd"><circle stroke="#000" stroke-width="2" cx="15" cy="15" r="15"></circle><text font-family="GraphikLCG-Bold, Graphik LCG" font-size="24" font-weight="bold" letter-spacing=".233" fill="#000"><tspan x="8.199" y="23">=</tspan></text></g></svg><svg width="364" height="20" viewBox="0 0 364 20" id="logo" y="156"><title>THE SOTIRIS FELIOS COLLECTION</title><text transform="translate(-536 -61)" fill="#000" fill-rule="evenodd" font-family="FuturaPTCond-Bold, Futura PT Cond" font-size="28" font-style="condensed" font-weight="bold" letter-spacing="2.333"><tspan x="536" y="80">THE SOTIRIS FELIOS COLLECTION</tspan></text></svg><svg width="234" height="14" viewBox="0 0 234 14" id="logo-footer" y="176"><title>THE SOTIRIS FELIOS C</title><text transform="translate(0 -5)" fill="#000" fill-rule="evenodd" font-family="FuturaPTCond-Bold, Futura PT Cond" font-size="18" font-style="condensed" font-weight="bold" letter-spacing="1.5"><tspan x="0" y="18">THE SOTIRIS FELIOS COLLECTION</tspan></text></svg><svg width="364" height="20" viewBox="0 0 364 20" id="logo-outlined" y="190"><title>THE SOTIRIS FELIOS C</title><path d="M9.464 3.696H6.58v15.26H2.884V3.696H0V.28h9.464v3.416zm14.905 15.26h-3.696v-8.26H16.95v8.26h-3.696V.28h3.696v6.916h3.724V.28h3.696v18.676zm12.722 0h-7.476V.28h7.42v3.472H33.31v4.032h3.276v3.528H33.31v4.2h3.78v3.444zM58.445.896v3.612c-.756-.644-1.624-1.204-2.66-1.204-1.092 0-1.848.728-1.848 1.82 0 3.22 5.6 3.164 5.6 8.372 0 3.22-1.932 5.768-5.32 5.768-1.148 0-2.268-.308-3.22-.952v-3.528c.84.56 1.708 1.008 2.744 1.008 1.26 0 2.184-.784 2.184-2.072 0-.336-.056-.644-.196-.952-.336-.7-1.372-1.316-1.988-1.736-2.1-1.456-3.444-2.8-3.444-5.516C50.297 2.576 52.005 0 55.17 0c1.26 0 2.184.28 3.276.896zm18.266 8.736c0 2.408-.252 4.984-1.68 7-1.092 1.54-2.94 2.632-4.872 2.632s-3.752-1.092-4.872-2.632c-1.428-1.96-1.68-4.648-1.68-7 0-2.408.252-5.012 1.68-7.028C66.379 1.036 68.255 0 70.159 0c1.932 0 3.752 1.064 4.872 2.604 1.428 1.96 1.68 4.676 1.68 7.028zm-3.92-.084c0-1.708-.196-6.16-2.632-6.16s-2.632 4.452-2.632 6.16c0 1.708.196 6.16 2.632 6.16s2.632-4.452 2.632-6.16zm16.753-5.852H86.66v15.26h-3.696V3.696H80.08V.28h9.464v3.416zm7.485 15.26h-3.696V.28h3.696v18.676zm16.11 0h-3.892l-3.276-8.596v8.596h-3.696V.28h4.004c1.372 0 2.884.112 4.06.896 1.484.98 2.212 2.8 2.212 4.536 0 2.128-.84 3.64-2.66 4.76l3.248 8.484zM105.97 3.192v5.124c.196.028.42.028.616.028 1.596 0 2.38-1.092 2.38-2.604s-.672-2.548-2.296-2.548h-.7zm15.577 15.764h-3.696V.28h3.696v18.676zM134.493.896v3.612c-.756-.644-1.624-1.204-2.66-1.204-1.092 0-1.848.728-1.848 1.82 0 3.22 5.6 3.164 5.6 8.372 0 3.22-1.932 5.768-5.32 5.768-1.148 0-2.268-.308-3.22-.952v-3.528c.84.56 1.708 1.008 2.744 1.008 1.26 0 2.184-.784 2.184-2.072 0-.336-.056-.644-.196-.952-.336-.7-1.372-1.316-1.988-1.736-2.1-1.456-3.444-2.8-3.444-5.516 0-2.94 1.708-5.516 4.872-5.516 1.26 0 2.184.28 3.276.896zm21.887 2.828h-3.752V7.7h3.388v3.556h-3.388v7.7h-3.696V.28h7.448v3.444zm12.105 15.232h-7.476V.28h7.42v3.472h-3.724v4.032h3.276v3.528h-3.276v4.2h3.78v3.444zm12.358 0h-7.56V.28h3.696v15.176h3.864v3.5zm7.681 0h-3.696V.28h3.696v18.676zm17.93-9.324c0 2.408-.253 4.984-1.68 7-1.093 1.54-2.94 2.632-4.873 2.632-1.932 0-3.752-1.092-4.872-2.632-1.428-1.96-1.68-4.648-1.68-7 0-2.408.252-5.012 1.68-7.028C196.121 1.036 197.997 0 199.901 0c1.932 0 3.752 1.064 4.872 2.604 1.428 1.96 1.68 4.676 1.68 7.028zm-3.92-.084c0-1.708-.197-6.16-2.633-6.16s-2.632 4.452-2.632 6.16c0 1.708.196 6.16 2.632 6.16s2.632-4.452 2.632-6.16zM218.978.896v3.612c-.756-.644-1.624-1.204-2.66-1.204-1.092 0-1.848.728-1.848 1.82 0 3.22 5.6 3.164 5.6 8.372 0 3.22-1.932 5.768-5.32 5.768-1.148 0-2.268-.308-3.22-.952v-3.528c.84.56 1.708 1.008 2.744 1.008 1.26 0 2.184-.784 2.184-2.072 0-.336-.056-.644-.196-.952-.336-.7-1.372-1.316-1.988-1.736-2.1-1.456-3.444-2.8-3.444-5.516 0-2.94 1.708-5.516 4.872-5.516 1.26 0 2.184.28 3.276.896zm23.51 13.804v3.864c-.812.448-1.54.588-2.548.588-1.792 0-3.164-.42-4.424-1.68-1.316-1.316-2.52-3.612-2.52-7.56 0-1.876.224-5.46 2.688-7.952 1.54-1.54 3.22-1.876 4.48-1.876.84 0 1.596.196 2.324.532v3.808a2.962 2.962 0 0 0-2.044-.812c-.98 0-1.624.42-2.044.84-1.008 1.008-1.54 2.94-1.54 5.348 0 .476 0 3.444 1.316 4.9.42.476 1.092.896 2.1.896.616 0 1.456-.196 2.212-.896zm17.034-5.068c0 2.408-.252 4.984-1.68 7-1.092 1.54-2.94 2.632-4.872 2.632s-3.752-1.092-4.872-2.632c-1.428-1.96-1.68-4.648-1.68-7 0-2.408.252-5.012 1.68-7.028C249.19 1.036 251.067 0 252.97 0c1.932 0 3.752 1.064 4.872 2.604 1.428 1.96 1.68 4.676 1.68 7.028zm-3.92-.084c0-1.708-.196-6.16-2.632-6.16s-2.632 4.452-2.632 6.16c0 1.708.196 6.16 2.632 6.16s2.632-4.452 2.632-6.16zm16.305 9.408h-7.56V.28h3.696v15.176h3.864v3.5zm11.545 0h-7.56V.28h3.696v15.176h3.864v3.5zm11.462 0h-7.476V.28h7.42v3.472h-3.724v4.032h3.276v3.528h-3.276v4.2h3.78v3.444zm13.869-4.256v3.864c-.812.448-1.54.588-2.548.588-1.792 0-3.164-.42-4.424-1.68-1.316-1.316-2.52-3.612-2.52-7.56 0-1.876.224-5.46 2.688-7.952C303.52.42 305.2.084 306.46.084c.84 0 1.596.196 2.324.532v3.808a2.962 2.962 0 0 0-2.044-.812c-.98 0-1.624.42-2.044.84-1.008 1.008-1.54 2.94-1.54 5.348 0 .476 0 3.444 1.316 4.9.42.476 1.092.896 2.1.896.616 0 1.456-.196 2.212-.896zm13.31-11.004h-2.885v15.26h-3.696V3.696h-2.884V.28h9.464v3.416zm7.485 15.26h-3.696V.28h3.696v18.676zm17.929-9.324c0 2.408-.252 4.984-1.68 7-1.092 1.54-2.94 2.632-4.872 2.632s-3.752-1.092-4.872-2.632c-1.428-1.96-1.68-4.648-1.68-7 0-2.408.252-5.012 1.68-7.028C337.176 1.036 339.052 0 340.956 0c1.932 0 3.752 1.064 4.872 2.604 1.428 1.96 1.68 4.676 1.68 7.028zm-3.92-.084c0-1.708-.196-6.16-2.632-6.16s-2.632 4.452-2.632 6.16c0 1.708.196 6.16 2.632 6.16s2.632-4.452 2.632-6.16zm20.31 9.408h-3.473L355.833 7.7c.14.7.196 1.428.196 2.128v9.128h-3.696V.28h3.5l4.592 11.284c-.168-.84-.28-1.68-.28-2.52V.28h3.752v18.676z" fill="#000" fill-rule="evenodd"></path></svg><svg width="20" height="16" viewBox="0 0 20 16" id="newsletter" y="210"><title>newsletter</title><defs><path d="M20 4H4c-1.1 0-2 .9-2 2v12c0 1.1.9 2 2 2h16c1.1 0 2-.9 2-2V6c0-1.1-.9-2-2-2zm-.4 4.25l-6.54 4.09c-.65.41-1.47.41-2.12 0L4.4 8.25a.85.85 0 1 1 .9-1.44L12 11l6.7-4.19a.85.85 0 1 1 .9 1.44z" id="a2"></path></defs><g transform="translate(-2 -4)" fill="none" fill-rule="evenodd"><mask id="b2" fill="#fff"><use xlink:href="#a2"></use></mask><path d="M0 0h24v24H0z" mask="url(#b2)" fill="#000" fill-opacity=".87"></path></g></svg><svg width="18" height="18" viewBox="0 0 18 18" id="search" y="226"><title>search</title><defs><path d="M15.977 14.472h-.79l-.28-.27a6.5 6.5 0 0 0 1.48-5.34c-.47-2.78-2.79-5-5.59-5.34a6.505 6.505 0 0 0-7.27 7.27c.34 2.8 2.56 5.12 5.34 5.59a6.5 6.5 0 0 0 5.34-1.48l.27.28v.79l4.25 4.25c.41.41 1.08.41 1.49 0 .41-.41.41-1.08 0-1.49l-4.24-4.26zm-6 0c-2.49 0-4.5-2.01-4.5-4.5s2.01-4.5 4.5-4.5 4.5 2.01 4.5 4.5-2.01 4.5-4.5 4.5z" id="a3"></path></defs><g transform="translate(-3 -3)" fill="none" fill-rule="evenodd"><mask id="b3" fill="#fff"><use xlink:href="#a3"></use></mask><path d="M0 0h24v24H0z" mask="url(#b3)" fill="#000" fill-opacity=".87"></path></g></svg><svg width="32" height="32" viewBox="0 0 32 32" id="share" y="244"><title>share</title><g transform="translate(1 1)" stroke="#000" fill="none" fill-rule="evenodd"><g transform="translate(9 10)" stroke-width="3"><path d="M10.5 1.5L.987 11.013"></path><path d="M10.454 1H3.383M11 8.517V1" stroke-linecap="square"></path></g><circle stroke-width="2" cx="15" cy="15" r="15"></circle></g></svg><svg width="32" height="32" viewBox="0 0 32 32" id="thumbnails" y="276"><title>thumbnails</title><g transform="translate(1 1)" fill="none" fill-rule="evenodd"><circle stroke="#000" stroke-width="2" fill="#000" cx="15" cy="15" r="15"></circle><text font-family="GraphikLCG-Bold, Graphik LCG" font-size="17" font-weight="bold" letter-spacing=".23" fill="#FFF"><tspan x="7.815" y="20">[</tspan><tspan x="14.998" y="20" letter-spacing=".233">]</tspan></text></g></svg><svg width="32" height="32" viewBox="0 0 32 32" id="thumbnails_idle" y="308"><title>thumbnails_idle</title><g transform="translate(1 1)" fill="none" fill-rule="evenodd"><circle stroke="#000" stroke-width="2" cx="15" cy="15" r="15"></circle><text font-family="GraphikLCG-Bold, Graphik LCG" font-size="17" font-weight="bold" letter-spacing=".23" fill="#000"><tspan x="7.815" y="20">[</tspan><tspan x="14.998" y="20" letter-spacing=".233">]</tspan></text></g></svg></svg>