<?xml version="1.0" encoding="UTF-8"?>
<svg width="364px" height="20px" viewBox="0 0 364 20" version="1.1" xmlns="http://www.w3.org/2000/svg" xmlns:xlink="http://www.w3.org/1999/xlink">
    <!-- Generator: Sketch 51.3 (57544) - http://www.bohemiancoding.com/sketch -->
    <title>THE SOTIRIS FELIOS C</title>
    <desc>Created with Sketch.</desc>
    <defs></defs>
    <g id="felios" stroke="none" stroke-width="1" fill="none" fill-rule="evenodd">
        <g id="exhibition-page" transform="translate(-524.000000, -66.000000)" fill="#000000">
            <path d="M533.464,69.696 L530.58,69.696 L530.58,84.956 L526.884,84.956 L526.884,69.696 L524,69.696 L524,66.28 L533.464,66.28 L533.464,69.696 Z M548.369333,84.956 L544.673333,84.956 L544.673333,76.696 L540.949333,76.696 L540.949333,84.956 L537.253333,84.956 L537.253333,66.28 L540.949333,66.28 L540.949333,73.196 L544.673333,73.196 L544.673333,66.28 L548.369333,66.28 L548.369333,84.956 Z M561.090666,84.956 L553.614666,84.956 L553.614666,66.28 L561.034666,66.28 L561.034666,69.752 L557.310666,69.752 L557.310666,73.784 L560.586666,73.784 L560.586666,77.312 L557.310666,77.312 L557.310666,81.512 L561.090666,81.512 L561.090666,84.956 Z M582.445332,66.896 L582.445332,70.508 C581.689332,69.864 580.821332,69.304 579.785332,69.304 C578.693332,69.304 577.937332,70.032 577.937332,71.124 C577.937332,74.344 583.537332,74.288 583.537332,79.496 C583.537332,82.716 581.605332,85.264 578.217332,85.264 C577.069332,85.264 575.949332,84.956 574.997332,84.312 L574.997332,80.784 C575.837332,81.344 576.705332,81.792 577.741332,81.792 C579.001332,81.792 579.925332,81.008 579.925332,79.72 C579.925332,79.384 579.869332,79.076 579.729332,78.768 C579.393332,78.068 578.357332,77.452 577.741332,77.032 C575.641332,75.576 574.297332,74.232 574.297332,71.516 C574.297332,68.576 576.005332,66 579.169332,66 C580.429332,66 581.353332,66.28 582.445332,66.896 Z M600.710665,75.632 C600.710665,78.04 600.458665,80.616 599.030665,82.632 C597.938665,84.172 596.090665,85.264 594.158665,85.264 C592.226665,85.264 590.406665,84.172 589.286665,82.632 C587.858665,80.672 587.606665,77.984 587.606665,75.632 C587.606665,73.224 587.858665,70.62 589.286665,68.604 C590.378665,67.036 592.254665,66 594.158665,66 C596.090665,66 597.910665,67.064 599.030665,68.604 C600.458665,70.564 600.710665,73.28 600.710665,75.632 Z M596.790665,75.548 C596.790665,73.84 596.594665,69.388 594.158665,69.388 C591.722665,69.388 591.526665,73.84 591.526665,75.548 C591.526665,77.256 591.722665,81.708 594.158665,81.708 C596.594665,81.708 596.790665,77.256 596.790665,75.548 Z M613.543998,69.696 L610.659998,69.696 L610.659998,84.956 L606.963998,84.956 L606.963998,69.696 L604.079998,69.696 L604.079998,66.28 L613.543998,66.28 L613.543998,69.696 Z M621.029331,84.956 L617.333331,84.956 L617.333331,66.28 L621.029331,66.28 L621.029331,84.956 Z M637.138664,84.956 L633.246664,84.956 L629.970664,76.36 L629.970664,84.956 L626.274664,84.956 L626.274664,66.28 L630.278664,66.28 C631.650664,66.28 633.162664,66.392 634.338664,67.176 C635.822664,68.156 636.550664,69.976 636.550664,71.712 C636.550664,73.84 635.710664,75.352 633.890664,76.472 L637.138664,84.956 Z M629.970664,69.192 L629.970664,74.316 C630.166664,74.344 630.390664,74.344 630.586664,74.344 C632.182664,74.344 632.966664,73.252 632.966664,71.74 C632.966664,70.228 632.294664,69.192 630.670664,69.192 L629.970664,69.192 Z M645.547997,84.956 L641.851997,84.956 L641.851997,66.28 L645.547997,66.28 L645.547997,84.956 Z M658.49333,66.896 L658.49333,70.508 C657.73733,69.864 656.86933,69.304 655.83333,69.304 C654.74133,69.304 653.98533,70.032 653.98533,71.124 C653.98533,74.344 659.58533,74.288 659.58533,79.496 C659.58533,82.716 657.65333,85.264 654.26533,85.264 C653.11733,85.264 651.99733,84.956 651.04533,84.312 L651.04533,80.784 C651.88533,81.344 652.75333,81.792 653.78933,81.792 C655.04933,81.792 655.97333,81.008 655.97333,79.72 C655.97333,79.384 655.91733,79.076 655.77733,78.768 C655.44133,78.068 654.40533,77.452 653.78933,77.032 C651.68933,75.576 650.34533,74.232 650.34533,71.516 C650.34533,68.576 652.05333,66 655.21733,66 C656.47733,66 657.40133,66.28 658.49333,66.896 Z M680.379996,69.724 L676.627996,69.724 L676.627996,73.7 L680.015996,73.7 L680.015996,77.256 L676.627996,77.256 L676.627996,84.956 L672.931996,84.956 L672.931996,66.28 L680.379996,66.28 L680.379996,69.724 Z M692.485329,84.956 L685.009329,84.956 L685.009329,66.28 L692.429329,66.28 L692.429329,69.752 L688.705329,69.752 L688.705329,73.784 L691.981329,73.784 L691.981329,77.312 L688.705329,77.312 L688.705329,81.512 L692.485329,81.512 L692.485329,84.956 Z M704.842662,84.956 L697.282662,84.956 L697.282662,66.28 L700.978662,66.28 L700.978662,81.456 L704.842662,81.456 L704.842662,84.956 Z M712.523995,84.956 L708.827995,84.956 L708.827995,66.28 L712.523995,66.28 L712.523995,84.956 Z M730.453328,75.632 C730.453328,78.04 730.201328,80.616 728.773328,82.632 C727.681328,84.172 725.833328,85.264 723.901328,85.264 C721.969328,85.264 720.149328,84.172 719.029328,82.632 C717.601328,80.672 717.349328,77.984 717.349328,75.632 C717.349328,73.224 717.601328,70.62 719.029328,68.604 C720.121328,67.036 721.997328,66 723.901328,66 C725.833328,66 727.653328,67.064 728.773328,68.604 C730.201328,70.564 730.453328,73.28 730.453328,75.632 Z M726.533328,75.548 C726.533328,73.84 726.337328,69.388 723.901328,69.388 C721.465328,69.388 721.269328,73.84 721.269328,75.548 C721.269328,77.256 721.465328,81.708 723.901328,81.708 C726.337328,81.708 726.533328,77.256 726.533328,75.548 Z M742.978661,66.896 L742.978661,70.508 C742.222661,69.864 741.354661,69.304 740.318661,69.304 C739.226661,69.304 738.470661,70.032 738.470661,71.124 C738.470661,74.344 744.070661,74.288 744.070661,79.496 C744.070661,82.716 742.138661,85.264 738.750661,85.264 C737.602661,85.264 736.482661,84.956 735.530661,84.312 L735.530661,80.784 C736.370661,81.344 737.238661,81.792 738.274661,81.792 C739.534661,81.792 740.458661,81.008 740.458661,79.72 C740.458661,79.384 740.402661,79.076 740.262661,78.768 C739.926661,78.068 738.890661,77.452 738.274661,77.032 C736.174661,75.576 734.830661,74.232 734.830661,71.516 C734.830661,68.576 736.538661,66 739.702661,66 C740.962661,66 741.886661,66.28 742.978661,66.896 Z M766.489327,80.7 L766.489327,84.564 C765.677327,85.012 764.949327,85.152 763.941327,85.152 C762.149327,85.152 760.777327,84.732 759.517327,83.472 C758.201327,82.156 756.997327,79.86 756.997327,75.912 C756.997327,74.036 757.221327,70.452 759.685327,67.96 C761.225327,66.42 762.905327,66.084 764.165327,66.084 C765.005327,66.084 765.761327,66.28 766.489327,66.616 L766.489327,70.424 C765.789327,69.78 765.033327,69.612 764.445327,69.612 C763.465327,69.612 762.821327,70.032 762.401327,70.452 C761.393327,71.46 760.861327,73.392 760.861327,75.8 C760.861327,76.276 760.861327,79.244 762.177327,80.7 C762.597327,81.176 763.269327,81.596 764.277327,81.596 C764.893327,81.596 765.733327,81.4 766.489327,80.7 Z M783.52266,75.632 C783.52266,78.04 783.27066,80.616 781.84266,82.632 C780.75066,84.172 778.90266,85.264 776.97066,85.264 C775.03866,85.264 773.21866,84.172 772.09866,82.632 C770.67066,80.672 770.41866,77.984 770.41866,75.632 C770.41866,73.224 770.67066,70.62 772.09866,68.604 C773.19066,67.036 775.06666,66 776.97066,66 C778.90266,66 780.72266,67.064 781.84266,68.604 C783.27066,70.564 783.52266,73.28 783.52266,75.632 Z M779.60266,75.548 C779.60266,73.84 779.40666,69.388 776.97066,69.388 C774.53466,69.388 774.33866,73.84 774.33866,75.548 C774.33866,77.256 774.53466,81.708 776.97066,81.708 C779.40666,81.708 779.60266,77.256 779.60266,75.548 Z M795.907993,84.956 L788.347993,84.956 L788.347993,66.28 L792.043993,66.28 L792.043993,81.456 L795.907993,81.456 L795.907993,84.956 Z M807.453326,84.956 L799.893326,84.956 L799.893326,66.28 L803.589326,66.28 L803.589326,81.456 L807.453326,81.456 L807.453326,84.956 Z M818.914659,84.956 L811.438659,84.956 L811.438659,66.28 L818.858659,66.28 L818.858659,69.752 L815.134659,69.752 L815.134659,73.784 L818.410659,73.784 L818.410659,77.312 L815.134659,77.312 L815.134659,81.512 L818.914659,81.512 L818.914659,84.956 Z M832.783992,80.7 L832.783992,84.564 C831.971992,85.012 831.243992,85.152 830.235992,85.152 C828.443992,85.152 827.071992,84.732 825.811992,83.472 C824.495992,82.156 823.291992,79.86 823.291992,75.912 C823.291992,74.036 823.515992,70.452 825.979992,67.96 C827.519992,66.42 829.199992,66.084 830.459992,66.084 C831.299992,66.084 832.055992,66.28 832.783992,66.616 L832.783992,70.424 C832.083992,69.78 831.327992,69.612 830.739992,69.612 C829.759992,69.612 829.115992,70.032 828.695992,70.452 C827.687992,71.46 827.155992,73.392 827.155992,75.8 C827.155992,76.276 827.155992,79.244 828.471992,80.7 C828.891992,81.176 829.563992,81.596 830.571992,81.596 C831.187992,81.596 832.027992,81.4 832.783992,80.7 Z M846.093325,69.696 L843.209325,69.696 L843.209325,84.956 L839.513325,84.956 L839.513325,69.696 L836.629325,69.696 L836.629325,66.28 L846.093325,66.28 L846.093325,69.696 Z M853.578658,84.956 L849.882658,84.956 L849.882658,66.28 L853.578658,66.28 L853.578658,84.956 Z M871.507991,75.632 C871.507991,78.04 871.255991,80.616 869.827991,82.632 C868.735991,84.172 866.887991,85.264 864.955991,85.264 C863.023991,85.264 861.203991,84.172 860.083991,82.632 C858.655991,80.672 858.403991,77.984 858.403991,75.632 C858.403991,73.224 858.655991,70.62 860.083991,68.604 C861.175991,67.036 863.051991,66 864.955991,66 C866.887991,66 868.707991,67.064 869.827991,68.604 C871.255991,70.564 871.507991,73.28 871.507991,75.632 Z M867.587991,75.548 C867.587991,73.84 867.391991,69.388 864.955991,69.388 C862.519991,69.388 862.323991,73.84 862.323991,75.548 C862.323991,77.256 862.519991,81.708 864.955991,81.708 C867.391991,81.708 867.587991,77.256 867.587991,75.548 Z M887.897324,84.956 L884.425324,84.956 L879.833324,73.7 C879.973324,74.4 880.029324,75.128 880.029324,75.828 L880.029324,84.956 L876.333324,84.956 L876.333324,66.28 L879.833324,66.28 L884.425324,77.564 C884.257324,76.724 884.145324,75.884 884.145324,75.044 L884.145324,66.28 L887.897324,66.28 L887.897324,84.956 Z" id="THE-SOTIRIS-FELIOS-C"></path>
        </g>
    </g>
</svg>